<mxfile host="app.diagrams.net" modified="2024-07-21T16:58:19.355Z" agent="Mozilla/5.0 (Windows NT 10.0; Win64; x64; rv:128.0) Gecko/20100101 Firefox/128.0" etag="ULz7nX01fVavdHl2-H70" version="24.7.1" type="github">
  <diagram name="Page-1" id="hHi3mLkMKhf1n1qEKWnM">
    <mxGraphModel dx="2442" dy="1268" grid="1" gridSize="10" guides="1" tooltips="1" connect="1" arrows="1" fold="1" page="1" pageScale="1" pageWidth="1100" pageHeight="850" math="0" shadow="0">
      <root>
        <mxCell id="0" />
        <mxCell id="1" parent="0" />
        <mxCell id="lxklbgHKJHgTm57hiVO--1" value="&quot;fetch_write_headlines_v3.py&quot;" style="rounded=0;whiteSpace=wrap;html=1;" vertex="1" parent="1">
          <mxGeometry x="335" y="10" width="180" height="60" as="geometry" />
        </mxCell>
        <mxCell id="lxklbgHKJHgTm57hiVO--6" value="" style="endArrow=classic;html=1;rounded=0;" edge="1" parent="1">
          <mxGeometry width="50" height="50" relative="1" as="geometry">
            <mxPoint x="425" y="80" as="sourcePoint" />
            <mxPoint x="425" y="130" as="targetPoint" />
          </mxGeometry>
        </mxCell>
        <mxCell id="lxklbgHKJHgTm57hiVO--7" value="&quot;news_headlines_{date}.txt&quot;" style="text;html=1;align=center;verticalAlign=middle;whiteSpace=wrap;rounded=0;" vertex="1" parent="1">
          <mxGeometry x="490" y="90" width="60" height="30" as="geometry" />
        </mxCell>
        <mxCell id="lxklbgHKJHgTm57hiVO--8" value="&quot;news_headlines_cleaner.py&quot;" style="rounded=0;whiteSpace=wrap;html=1;" vertex="1" parent="1">
          <mxGeometry x="335" y="140" width="180" height="60" as="geometry" />
        </mxCell>
        <mxCell id="lxklbgHKJHgTm57hiVO--9" value="" style="endArrow=classic;html=1;rounded=0;" edge="1" parent="1">
          <mxGeometry width="50" height="50" relative="1" as="geometry">
            <mxPoint x="425" y="210" as="sourcePoint" />
            <mxPoint x="425" y="260" as="targetPoint" />
          </mxGeometry>
        </mxCell>
        <mxCell id="lxklbgHKJHgTm57hiVO--10" value="&quot;cleaned_headlines.csv&quot;" style="text;html=1;align=center;verticalAlign=middle;whiteSpace=wrap;rounded=0;" vertex="1" parent="1">
          <mxGeometry x="480" y="220" width="60" height="30" as="geometry" />
        </mxCell>
        <mxCell id="lxklbgHKJHgTm57hiVO--12" value="&quot;sentiment_analysis.py&quot;" style="rounded=0;whiteSpace=wrap;html=1;" vertex="1" parent="1">
          <mxGeometry x="335" y="270" width="180" height="60" as="geometry" />
        </mxCell>
        <mxCell id="lxklbgHKJHgTm57hiVO--13" value="" style="endArrow=classic;html=1;rounded=0;" edge="1" parent="1">
          <mxGeometry width="50" height="50" relative="1" as="geometry">
            <mxPoint x="425" y="340" as="sourcePoint" />
            <mxPoint x="425" y="390" as="targetPoint" />
          </mxGeometry>
        </mxCell>
        <mxCell id="lxklbgHKJHgTm57hiVO--14" value="polarity and subjectivity integers" style="text;html=1;align=center;verticalAlign=middle;whiteSpace=wrap;rounded=0;" vertex="1" parent="1">
          <mxGeometry x="410" y="350" width="240" height="30" as="geometry" />
        </mxCell>
        <mxCell id="lxklbgHKJHgTm57hiVO--15" value="primary data .csv" style="rounded=0;whiteSpace=wrap;html=1;" vertex="1" parent="1">
          <mxGeometry x="335" y="400" width="180" height="60" as="geometry" />
        </mxCell>
      </root>
    </mxGraphModel>
  </diagram>
</mxfile>
